<svg width="45" height="45" viewBox="0 0 45 45" fill="none" xmlns="http://www.w3.org/2000/svg">
<path d="M22.5003 43.125C33.8877 43.125 43.1201 33.8926 43.1201 22.5052C43.1201 11.1178 33.8877 1.8855 22.5003 1.8855C11.1129 1.8855 1.88062 11.1178 1.88062 22.5052C1.88062 33.8926 11.1129 43.125 22.5003 43.125Z" fill="#C2F3FF"/>
<path d="M22.5001 10.4185C27.2275 10.4189 31.8109 12.0436 35.4833 15.0206C39.1555 17.9975 41.6933 22.1458 42.6717 26.7709C43.3084 23.7669 43.2663 20.6586 42.5481 17.673C41.83 14.6874 40.4543 11.8998 38.5212 9.51396C36.5881 7.12806 34.1464 5.20406 31.3746 3.88245C28.6028 2.56086 25.5709 1.875 22.5001 1.875C19.4294 1.875 16.3974 2.56086 13.6256 3.88245C10.8538 5.20406 8.41223 7.12806 6.47911 9.51396C4.54598 11.8998 3.17015 14.6874 2.45206 17.673C1.734 20.6586 1.69182 23.7669 2.32863 26.7709C3.30697 22.1458 5.84478 17.9975 9.517 15.0206C13.1892 12.0436 17.7728 10.4189 22.5001 10.4185Z" fill="#66E1FF"/>
<path d="M22.5003 43.125C33.8877 43.125 43.1201 33.8926 43.1201 22.5052C43.1201 11.1178 33.8877 1.8855 22.5003 1.8855C11.1129 1.8855 1.88062 11.1178 1.88062 22.5052C1.88062 33.8926 11.1129 43.125 22.5003 43.125Z" stroke="#191919" stroke-linecap="round" stroke-linejoin="round"/>
<path d="M22.5009 18.0226C24.0463 18.0226 25.5287 17.4086 26.6214 16.3158C27.7142 15.2229 28.3282 13.7407 28.3282 12.1952C28.3282 10.6497 27.7142 9.16754 26.6214 8.07469C25.5287 6.98187 24.0463 6.36792 22.5009 6.36792C20.9554 6.36792 19.4732 6.98187 18.3804 8.07469C17.2875 9.16754 16.6736 10.6497 16.6736 12.1952C16.6736 13.7407 17.2875 15.2229 18.3804 16.3158C19.4732 17.4086 20.9554 18.0226 22.5009 18.0226Z" fill="#FFDDA1"/>
<path d="M26.1677 38.6424L26.9835 34.1598H30.5696V28.7808C30.5696 26.6409 29.7195 24.5885 28.2064 23.0754C26.6932 21.5623 24.6409 20.7122 22.5009 20.7122C20.361 20.7122 18.3087 21.5623 16.7956 23.0754C15.2824 24.5885 14.4324 26.6409 14.4324 28.7808V34.1598H18.0184L18.8342 38.6424" fill="white"/>
<path d="M22.5009 9.95397C23.7291 9.95646 24.9247 10.3483 25.9161 11.0732C26.9074 11.7981 27.6433 12.8187 28.0179 13.9883C28.2152 13.4109 28.3211 12.8049 28.3282 12.1952C28.3282 10.6497 27.7142 9.16754 26.6214 8.07469C25.5287 6.98187 24.0463 6.36792 22.5009 6.36792C20.9554 6.36792 19.4732 6.98187 18.3804 8.07469C17.2875 9.16754 16.6736 10.6497 16.6736 12.1952C16.6807 12.8049 16.7865 13.4109 16.9838 13.9883C17.3585 12.8187 18.0944 11.7981 19.0858 11.0732C20.0771 10.3483 21.2728 9.95646 22.5009 9.95397Z" fill="#FFDDA1"/>
<path d="M22.5009 18.0226C24.0463 18.0226 25.5287 17.4086 26.6214 16.3158C27.7142 15.2229 28.3282 13.7407 28.3282 12.1952C28.3282 10.6497 27.7142 9.16754 26.6214 8.0747C25.5287 6.98187 24.0463 6.36792 22.5009 6.36792C20.9554 6.36792 19.4732 6.98187 18.3804 8.0747C17.2875 9.16754 16.6736 10.6497 16.6736 12.1952C16.6736 13.7407 17.2875 15.2229 18.3804 16.3158C19.4732 17.4086 20.9554 18.0226 22.5009 18.0226Z" stroke="#191919" stroke-linecap="round" stroke-linejoin="round"/>
<path d="M22.5009 20.7122C20.361 20.7122 18.3087 21.5623 16.7956 23.0754C15.2824 24.5885 14.4324 26.6409 14.4324 28.7808V32.3668C14.4324 31.3072 14.6411 30.258 15.0465 29.279C15.452 28.3001 16.0464 27.4108 16.7956 26.6615C17.5448 25.9123 18.4343 25.3179 19.4132 24.9123C20.3921 24.507 21.4414 24.2983 22.5009 24.2983C23.5605 24.2983 24.6097 24.507 25.5887 24.9123C26.5676 25.3179 27.4571 25.9123 28.2064 26.6615C28.9556 27.4108 29.5498 28.3001 29.9554 29.279C30.3609 30.258 30.5696 31.3072 30.5696 32.3668V28.7808C30.5696 26.6409 29.7195 24.5885 28.2064 23.0754C26.6932 21.5623 24.6409 20.7122 22.5009 20.7122Z" fill="white"/>
<path d="M26.1677 38.6424L26.9835 34.1598H30.5696V28.7808C30.5696 26.6409 29.7195 24.5885 28.2064 23.0754C26.6932 21.5623 24.6409 20.7122 22.5009 20.7122C20.361 20.7122 18.3087 21.5623 16.7956 23.0754C15.2824 24.5885 14.4324 26.6409 14.4324 28.7808V34.1598H18.0184L18.8342 38.6424" stroke="#191919" stroke-linecap="round" stroke-linejoin="round"/>
</svg>
